<svg xmlns="http://www.w3.org/2000/svg" xmlns:xlink="http://www.w3.org/1999/xlink" fill="white" version="1.1" x="0px" y="0px" viewBox="0 0 100 125" enable-background="new 0 0 100 100" xml:space="preserve"><polygon points="71.997,10.656 72.104,13.656 84.682,13.197 58.081,39.798 60.202,41.919 86.807,15.313 86.346,27.898   89.347,28.005 90.002,10.002 "/><polygon points="15.318,86.803 41.92,60.202 39.799,58.081 13.193,84.687 13.654,72.102 10.654,71.995 9.998,89.998 28.003,89.345   27.896,86.344 "/><polygon points="71.995,89.346 89.998,90.002 89.345,71.997 86.344,72.104 86.803,84.682 60.202,58.081 58.081,60.202   84.686,86.807 72.102,86.346 "/><polygon points="41.92,39.798 15.314,13.193 27.898,13.654 28.005,10.653 10.002,9.998 10.656,28.003 13.656,27.896 13.197,15.318   39.799,41.919 "/></svg>